<svg width="26" height="22" viewBox="0 0 26 22" fill="none" xmlns="http://www.w3.org/2000/svg">
<g filter="url(#filter0_d)">
<path d="M21.2727 1.83371C20.1862 1.88234 20.2099 1.87837 20.0871 1.88836L20.7306 0.103532C20.7306 0.103532 18.722 0.821174 18.2128 0.949548C16.8755 -0.217852 14.8877 -0.269432 13.4666 0.578888C12.3028 1.27375 11.6782 2.467 11.8865 3.86171C9.62162 3.55646 7.7133 2.51372 6.20666 0.755899L5.73014 0.200037L5.37407 0.835125C4.92404 1.63762 4.7746 2.55519 4.95317 3.41874C5.02644 3.77302 5.15097 4.11091 5.32347 4.4273L4.91469 4.27346L4.86619 4.93683C4.81704 5.6107 5.04805 6.39733 5.48424 7.04086C5.60706 7.2221 5.7652 7.42112 5.96563 7.61746L5.75439 7.58598L6.01215 8.34611C6.35096 9.34482 7.05467 10.1175 7.9679 10.547C7.05585 10.9229 6.31907 11.1628 5.10801 11.5497L4 11.9035L5.02341 12.4469C5.41361 12.6541 6.79242 13.3462 8.15477 13.5538C11.1831 14.0151 14.5926 13.6394 16.888 11.6316C18.8213 9.94049 19.4557 7.53491 19.3239 5.03154C19.304 4.65257 19.4109 4.29086 19.6249 4.01325C20.0536 3.45739 21.2701 1.83742 21.2727 1.83371ZM18.8157 3.4245C18.4602 3.88539 18.2822 4.47402 18.3141 5.08172C18.4471 7.60684 17.7397 9.56509 16.2114 10.9018C14.4262 12.4634 11.5467 13.0764 8.31146 12.5835C7.72556 12.4943 7.12003 12.2945 6.61887 12.0949C7.63424 11.7556 8.41833 11.4532 9.68461 10.8711L11.4523 10.0585L9.50064 9.93716C8.56579 9.87905 7.78737 9.43902 7.30887 8.72458C7.56294 8.71024 7.80792 8.67031 8.05185 8.60427L9.91324 8.10075L8.0363 7.65432C7.12425 7.43738 6.60437 6.90737 6.32882 6.50087C6.14789 6.23376 6.02968 5.96011 5.95878 5.70785C6.14696 5.75687 6.36638 5.79181 6.72021 5.82585L8.45747 5.99275L7.08102 4.94989C6.08924 4.19858 5.6918 3.06984 5.98316 1.98473C9.07842 5.10283 12.7127 4.86848 13.0785 4.95091C12.998 4.19129 12.9958 4.1895 12.9748 4.11718C12.5063 2.50873 13.533 1.69202 13.9961 1.41556C14.9633 0.838197 16.4987 0.751163 17.5622 1.70239C17.7919 1.90768 18.1025 1.98845 18.3932 1.91831C18.6541 1.85534 18.8682 1.78865 19.0779 1.71608L18.6414 2.92661L19.1986 2.927C19.0935 3.06395 18.9673 3.2279 18.8157 3.4245Z" fill="white"/>
</g>
<defs>
<filter id="filter0_d" x="0" y="0" width="25.2727" height="21.7304" filterUnits="userSpaceOnUse" color-interpolation-filters="sRGB">
<feFlood flood-opacity="0" result="BackgroundImageFix"/>
<feColorMatrix in="SourceAlpha" type="matrix" values="0 0 0 0 0 0 0 0 0 0 0 0 0 0 0 0 0 0 127 0"/>
<feOffset dy="4"/>
<feGaussianBlur stdDeviation="2"/>
<feColorMatrix type="matrix" values="0 0 0 0 0 0 0 0 0 0 0 0 0 0 0 0 0 0 0.25 0"/>
<feBlend mode="normal" in2="BackgroundImageFix" result="effect1_dropShadow"/>
<feBlend mode="normal" in="SourceGraphic" in2="effect1_dropShadow" result="shape"/>
</filter>
</defs>
</svg>
