<svg width="26" height="25" viewBox="0 0 26 25" fill="none" xmlns="http://www.w3.org/2000/svg">
<g filter="url(#filter0_d)">
<path d="M6.53018 16.776H18.7425C20.1377 16.776 21.2727 15.6736 21.2727 14.3185V2.45742C21.2727 1.10238 20.1377 0 18.7425 0H6.53018C5.13502 0 4 1.10238 4 2.45742V14.3185C4 15.6736 5.13502 16.776 6.53018 16.776ZM5.01207 2.45742C5.01207 1.64442 5.69311 0.982966 6.53018 0.982966H18.7425C19.5796 0.982966 20.2606 1.64442 20.2606 2.45742V14.3185C20.2606 15.1315 19.5796 15.793 18.7425 15.793H6.53018C5.69311 15.793 5.01207 15.1315 5.01207 14.3185V2.45742Z" fill="white"/>
<path d="M12.6364 12.8113C15.1476 12.8113 17.1907 10.827 17.1907 8.38798C17.1907 5.94899 15.1476 3.96463 12.6364 3.96463C10.1252 3.96463 8.08203 5.94899 8.08203 8.38798C8.08203 10.827 10.1252 12.8113 12.6364 12.8113ZM12.6364 4.9476C14.5896 4.9476 16.1786 6.49091 16.1786 8.38798C16.1786 10.2851 14.5896 11.8284 12.6364 11.8284C10.6831 11.8284 9.0941 10.2851 9.0941 8.38798C9.0941 6.49091 10.6831 4.9476 12.6364 4.9476Z" fill="white"/>
<path d="M17.4092 4.70905C18.2363 4.70905 18.9092 4.05548 18.9092 3.25218C18.9092 2.44888 18.2363 1.79532 17.4092 1.79532C16.5821 1.79532 15.9092 2.44888 15.9092 3.25218C15.9092 4.05548 16.5821 4.70905 17.4092 4.70905ZM17.4092 2.76656C17.6848 2.76656 17.9092 2.98446 17.9092 3.25218C17.9092 3.51991 17.6848 3.7378 17.4092 3.7378C17.1335 3.7378 16.9092 3.51991 16.9092 3.25218C16.9092 2.98446 17.1335 2.76656 17.4092 2.76656Z" fill="white"/>
</g>
<defs>
<filter id="filter0_d" x="0" y="0" width="25.2727" height="24.776" filterUnits="userSpaceOnUse" color-interpolation-filters="sRGB">
<feFlood flood-opacity="0" result="BackgroundImageFix"/>
<feColorMatrix in="SourceAlpha" type="matrix" values="0 0 0 0 0 0 0 0 0 0 0 0 0 0 0 0 0 0 127 0"/>
<feOffset dy="4"/>
<feGaussianBlur stdDeviation="2"/>
<feColorMatrix type="matrix" values="0 0 0 0 0 0 0 0 0 0 0 0 0 0 0 0 0 0 0.25 0"/>
<feBlend mode="normal" in2="BackgroundImageFix" result="effect1_dropShadow"/>
<feBlend mode="normal" in="SourceGraphic" in2="effect1_dropShadow" result="shape"/>
</filter>
</defs>
</svg>
